<?xml version="1.0" encoding="UTF-8" standalone="no"?>
<!DOCTYPE svg PUBLIC "-//W3C//DTD SVG 1.1//EN" "http://www.w3.org/Graphics/SVG/1.1/DTD/svg11.dtd">
<svg width="100%" height="100%" viewBox="0 0 340 340" version="1.1" xmlns="http://www.w3.org/2000/svg" xmlns:xlink="http://www.w3.org/1999/xlink" xml:space="preserve" xmlns:serif="http://www.serif.com/" style="fill-rule:evenodd;clip-rule:evenodd;stroke-linejoin:round;stroke-miterlimit:2;">
    <g id="year_3000_realness" transform="matrix(1.08316,0,0,1.08316,-14.1368,22.6906)">
        <g id="fire">
            <path d="M300.98,129.81C299.45,126.74 297.4,132 295.55,130.31C294.63,128.5 292.9,133.92 292,133C277.64,136.37 272.04,117.4 259.94,114C253.32,117.26 249.04,114.43 243.3,111.15C225.53,117.91 226.82,127.79 228.66,102.67C228.66,92.39 225.55,80.38 220.91,72.75C217.66,66.36 206.88,67.49 200.39,70.09C190.65,86.62 186.72,106.18 181.06,124.35C164.72,126.65 182.44,87.59 163.04,92.45C158.14,98.11 164.15,108.8 156.45,113.21C155.75,113.72 154.94,114.87 154.07,114.13C153.19,114.71 152.24,115.48 151.26,115.41C150.28,114.93 149.26,114.71 148.25,115.68C147.24,116.59 146.24,116.32 145.28,116.06C133.05,117.2 134.88,69.61 120.6,86.89C126.64,109.06 107.36,112.92 92.63,120.31C90.21,124.36 88.25,118.75 85.68,122.59C81.55,123.45 77.57,126.95 73.48,128.32C71.29,129.83 69.01,129.96 66.61,129.3C57.74,123.84 60.67,120.18 47.2,119.93C45.06,119.34 43.01,124.88 41.56,121.15C27.61,116.22 36.26,130.67 35.23,138.49C36.38,139.96 32.77,150.15 37.93,148.49C38.85,146.61 39.77,147.49 40.65,148.64C41.6,147.81 41.05,138.41 39.87,135.04C39.66,135.71 39.43,132.96 39.17,132.11C40.86,134.9 43.89,132.85 46.45,133.09C48.43,133.86 50.72,128.95 51.46,127.47C51.42,134.45 52.19,130.31 54.57,135.77C56.14,138.38 57.85,138.33 59.78,140.31C61.33,141.1 63.12,141.34 64.65,142.19C65.52,142.67 69.52,142.43 70.78,142.31C71.43,142.19 72.17,142.41 72.53,142.96C72.82,143.41 76.81,140.62 77.26,139.68C77.87,138.43 78.38,138.07 78.78,137.49C79.18,136.09 88.24,138.13 89.17,133.74C90.1,133.77 90.99,134.83 91.88,132.63C92.77,132.28 99.04,129.05 99.85,125.71C101.07,125.54 102.3,125.94 103.53,126.24C104.15,126.88 113.24,124.84 114.38,123.27C115.52,123.47 120.2,118.81 120.67,117.86C121.61,116.84 124.83,111.53 125.47,110.75C126.09,109.51 126.63,108.23 127.08,106.92C126.62,109.31 126.43,111.73 126.7,113.43C126.81,112.36 127.88,117.07 128.29,120.43C128.7,121.33 131.96,124.87 132.48,125.51C133.51,129.15 151.5,128.49 152.18,127.99C153.54,125.72 154.86,127.11 156.12,126.3C156.75,125.32 159.11,123.18 159.66,122.83C160.76,123.99 161.76,119.71 162.64,119.42C163.08,120.37 163.56,121.23 163.79,123.37C164.02,125.21 166.3,130.21 167.14,130.95C167.98,134.01 175.69,136.16 176.92,137.5C178.15,138.32 179.4,139.14 180.63,138.14C183.09,136.89 185.47,139.3 187.49,136.7C189.52,135.29 191.2,134.19 192.25,131.21C194.38,128.69 192.96,119.3 192.86,114.4C192.76,109.48 193.28,104.2 196.03,101.35C194.19,115.04 201.61,97.92 202.27,91.38C202.61,90.82 202.75,82.83 202.64,83.55C202.59,82.69 202.48,82.67 202.32,79.96C207.33,88.65 206.11,77.72 213.48,77.14C212.1,77.78 211.23,76.75 210.97,80.71C210.52,85.95 214.56,94.02 218.34,98.16C218.49,95.83 218.63,98.13 218.78,94.6C220.91,96.04 222.22,102.44 221.88,103.31C221.78,109.88 218.21,115.16 218.73,121.49C218.81,121.21 220.37,131.63 222.93,129.98C223.95,130.24 225.06,129.45 226.2,130.96C227.34,132.08 232.05,131.81 233.18,130.03C234.54,128.48 235.45,130.08 236.29,127.78C237.13,127.71 237.91,124.98 239.02,124.22C239.78,120.08 240.41,122.11 240.87,120.66C241.15,121.65 241.02,123.81 241.22,124.24C241.43,125.86 241.97,125.58 243.62,124.24C244.26,126.36 244.99,125.97 245.81,126.4C246.62,125.93 249.97,128.64 250.87,129.13C251.77,128.32 255.11,130.44 255.86,129.46C256.62,129.46 259.89,126.19 260.61,125.45C261.33,124.16 261.96,123.9 262.43,123.49C262.38,124.52 262.99,127.81 263.41,129.6C263.83,131.1 271.62,135.44 272.62,135.17C273.62,136.96 274.6,136.92 275.34,137.08C276.09,136.72 277.24,140.55 279.27,142.06C280.05,143.58 285.07,147.41 286.05,146.68C286.54,147.39 291.25,144.71 292.28,146.23C293.31,146.17 294.3,147.07 295.2,144.3C296.1,142.79 296.92,143.01 297.59,142.2C298.27,141.39 298.8,140.48 299.15,139.46C299.3,141.18 302.45,147.03 303.06,149.3C303.09,148.31 306.97,151.65 307,151C309.96,150.87 316,149.27 319,150C314,143 308.66,131.73 300.98,129.81Z" style="fill:rgb(248,239,0);fill-rule:nonzero;"/>
            <path d="M91.4,85.68C91.4,85.68 91.4,85.72 91.39,85.73L91.39,85.75L91.4,85.75L91.39,85.74C91.39,85.72 91.39,85.7 91.4,85.68Z" style="fill:rgb(195,29,41);fill-rule:nonzero;"/>
            <path d="M251.47,93.35L251.35,93.35C251.37,93.35 251.38,93.37 251.4,93.37C251.42,93.37 251.44,93.36 251.47,93.35Z" style="fill:rgb(195,29,41);fill-rule:nonzero;"/>
            <path d="M251.35,93.35C251.35,93.35 251.33,93.35 251.32,93.34C251.32,93.34 251.32,93.35 251.33,93.36L251.35,93.36L251.35,93.35Z" style="fill:rgb(195,29,41);fill-rule:nonzero;"/>
            <path d="M258.22,102.1C258.22,102.1 258.17,102.17 258.14,102.21L258.25,102.21C258.24,102.17 258.22,102.14 258.21,102.1L258.22,102.1Z" style="fill:rgb(195,29,41);fill-rule:nonzero;"/>
            <path d="M258.14,102.21L258.11,102.21L258.11,102.24C258.11,102.24 258.12,102.24 258.13,102.23C258.13,102.23 258.13,102.22 258.14,102.21Z" style="fill:rgb(195,29,41);fill-rule:nonzero;"/>
            <path d="M276.44,103.13L276.38,103.13C276.38,103.13 276.38,103.15 276.4,103.16L276.44,103.14L276.44,103.13Z" style="fill:rgb(195,29,41);fill-rule:nonzero;"/>
            <path d="M42.22,103.33C42.22,103.33 42.2,103.33 42.2,103.34L42.23,103.34L42.23,103.31L42.22,103.33Z" style="fill:rgb(195,29,41);fill-rule:nonzero;"/>
            <path d="M42.22,103.22L42.22,103.33C42.27,103.31 42.31,103.29 42.36,103.27C42.32,103.26 42.27,103.24 42.23,103.23L42.22,103.22Z" style="fill:rgb(195,29,41);fill-rule:nonzero;"/>
            <path d="M297.97,112.11C297.97,112.11 297.89,112.07 297.85,112.05C297.84,112.07 297.82,112.09 297.81,112.12C297.84,112.14 297.86,112.18 297.89,112.18C297.92,112.18 297.94,112.14 297.97,112.12L297.97,112.11Z" style="fill:rgb(195,29,41);fill-rule:nonzero;"/>
            <path d="M324.8,135C324.76,134.86 324.85,134.66 324.65,134.59C324.38,134.49 324.28,134.74 324.16,134.87C323.22,135.86 322.29,136.87 321.35,137.86C321.13,138.09 320.98,138.53 320.6,138.43C320.29,138.35 320.35,137.89 320.27,137.6C319.44,134.4 318.63,131.2 317.81,127.99C317.33,126.1 316.83,124.21 316.34,122.32C316.3,122.19 316.34,121.94 316.08,121.99C315.78,122.05 316.04,122.24 316.05,122.36C316.13,123.14 316.25,123.91 316.33,124.69C316.34,124.82 316.48,125.02 316.22,125.06C316.14,125.07 316.01,124.93 315.94,124.83C315.32,124.02 314.75,123.18 314.09,122.4C313.58,121.79 313.31,121.02 312.52,120.59C312.47,121.37 312.58,122.14 312.74,122.91C313.19,125.07 314.2,127.09 314.84,129.21C315.44,131.17 315.73,133.14 314.99,135.12C314.63,136.09 314.07,136.96 313.09,137.58C312.57,137.91 312,138.15 311.37,137.87C310.75,137.6 310.62,137.08 310.62,136.51C310.62,135.86 310.91,135.29 311.25,134.74C312.72,132.37 312.95,129.86 312.33,127.27C311.99,125.85 311.32,124.53 310.24,123.4C310.14,123.29 310.05,123.09 309.83,123.19C309.76,123.22 309.77,123.41 309.76,123.52C309.76,124.08 309.79,124.65 309.74,125.21C309.63,126.41 309.25,127.54 308.61,128.61C308.56,128.69 308.49,128.77 308.4,128.81C308.23,128.87 308.25,128.73 308.24,128.65C308.04,127.39 307.62,126.15 307.9,124.84C308.63,121.4 309.35,117.94 309.1,114.42C308.91,111.6 308.23,108.89 306.3,106.55C303.26,102.88 298.76,101.81 293.87,101.48C293.76,101.48 293.52,101.39 293.53,101.58C293.53,101.7 293.71,101.83 293.83,101.94C295.63,103.51 297.08,105.3 298.25,107.25C299.28,108.98 300.04,110.8 300.58,112.68C300.63,112.85 300.75,113.07 300.58,113.22C300.36,113.42 300.12,113.24 299.89,113.17C299.37,113.01 298.92,112.75 298.49,112.46C298.35,112.37 298.21,112.2 298.04,112.33C297.89,112.45 298.01,112.62 298.08,112.76C298.45,113.54 298.87,114.3 299.19,115.1C300.17,117.55 300.63,120.02 299.3,122.49C298.72,123.57 297.94,124.47 296.62,124.96C296.04,125.17 295.73,125.15 295.54,124.54C295.14,123.27 294.84,121.99 294.72,120.68C294.51,118.37 294.96,116.13 295.65,113.92C295.74,113.89 295.82,113.81 295.73,113.75C295.63,113.68 295.6,113.78 295.58,113.85C294.07,114.59 293.16,115.79 292.36,117.05C290.62,119.81 290.11,122.83 290.03,125.92C289.98,127.95 290.16,129.98 290.36,132.01C290.38,132.19 290.38,132.53 290.33,132.53C290,132.58 289.97,132.29 289.86,132.12C287.73,128.72 286.98,125.08 287.42,121.24C287.46,120.87 287.49,120.5 287.52,120.12C287.01,120.23 287.07,120.7 286.81,120.97C286.7,121.08 286.59,121.3 286.48,121.3C286.18,121.3 286.26,121.04 286.2,120.87C285.77,119.58 285.34,118.29 284.92,117C283.51,112.67 282.11,108.34 280.69,104.02C280.62,103.8 280.66,103.41 280.37,103.38C280,103.34 279.95,103.73 279.81,103.96C279.02,105.23 278.41,106.56 277.93,107.94C277.38,109.51 277.12,111.11 276.9,112.72C276.88,112.86 276.98,113.08 276.78,113.11C276.58,113.14 276.56,112.9 276.46,112.79C276.38,112.69 276.33,112.56 276.23,112.48C276.17,112.42 276.02,112.37 275.96,112.39C275.75,112.47 275.94,112.58 275.97,112.68C276.3,113.48 276.46,114.32 276.56,115.15C276.83,117.38 276.5,119.52 275.18,121.49C275.09,121.62 275.02,121.83 274.83,121.81C274.63,121.79 274.68,121.57 274.63,121.44C274.38,120.76 274.14,120.07 273.9,119.38C271.98,113.76 272.33,108.39 276.34,103.44C276.42,103.35 276.5,103.26 276.4,103.15C276.33,103.2 276.25,103.26 276.18,103.31C275.37,103.55 274.75,104.03 274.13,104.51C271.86,106.27 270.42,108.47 269.62,111C269.57,111.17 269.52,111.37 269.31,111.48C269.28,111.33 269.24,111.18 269.21,111.03C267.84,105.05 265.49,99.38 262,94.07C261.84,93.83 261.67,93.58 261.49,93.36C261.45,93.31 261.31,93.31 261.22,93.28C261.21,93.34 261.17,93.4 261.18,93.46C261.22,93.64 261.28,93.82 261.33,94C261.9,96.23 262.43,98.46 262.05,100.76C261.77,102.51 261.03,104.07 259.51,105.3C258.98,105.73 258.37,106.07 257.63,106.18C257.3,106.23 257.03,106.21 257.18,105.81C257.27,105.57 257.35,105.33 257.4,105.09C257.56,104.13 258.19,103.25 258.1,102.24C257.06,102.82 256.47,103.72 255.93,104.61C254.08,107.63 253.49,110.86 253.9,114.24C253.92,114.39 253.9,114.55 253.91,114.7C253.71,114.7 253.6,114.56 253.47,114.45C253.29,114.29 253.12,114.13 252.96,113.97C249.01,109.87 247.71,105.15 248.63,99.94C249.01,97.75 249.99,95.74 251.18,93.8C251.38,93.69 251.45,93.55 251.32,93.36C251.22,93.45 251.11,93.54 251.01,93.63C250.18,94.13 249.35,94.63 248.52,95.13C248.35,95.23 248.17,95.46 247.97,95.37C247.69,95.25 247.86,94.98 247.88,94.79C248.19,92.46 248.53,90.14 248.85,87.82C249.05,86.39 249.24,84.97 249.42,83.54C249.44,83.41 249.55,83.21 249.32,83.15C249.22,83.12 249.06,83.22 248.94,83.28C248.78,83.36 248.64,83.46 248.49,83.55C246.53,84.72 244.57,85.91 242.59,87.07C242.3,87.24 242.01,87.62 241.7,87.5C241.35,87.36 241.61,86.95 241.59,86.66C241.57,86.32 241.66,85.98 241.65,85.64C241.65,85.41 241.82,85.07 241.55,84.99C241.32,84.91 241.22,85.26 241.09,85.43C240.65,86.04 240.22,86.65 239.78,87.26C237.41,90.55 236.39,94.09 236.9,97.98C237.19,100.21 237.16,102.47 236.53,104.69C235.62,107.94 234.09,110.89 231,113.07C230.9,113.13 230.71,113.24 230.7,113.23C230.56,113.09 230.67,112.98 230.8,112.88C231.19,112.07 231.6,111.28 231.96,110.46C234.96,103.77 235.67,96.87 234.5,89.81C233.99,86.71 233.03,83.7 231.58,80.81C231.5,80.65 231.49,80.36 231.23,80.4C230.99,80.44 231.11,80.71 231.08,80.87C230.8,82.95 230.53,85.03 230.25,87.11C230.22,87.33 230.3,87.58 230.09,87.77C229.99,87.54 229.88,87.31 229.8,87.08C228.04,81.47 226.29,75.87 224.53,70.26C223.52,67.04 222.48,63.82 221.15,60.68C221.09,60.54 220.99,60.41 220.91,60.27C220.85,60.41 220.75,60.55 220.74,60.7C220.68,61.54 220.66,62.39 220.6,63.23C220.58,63.47 220.72,63.82 220.47,63.91C220.16,64.02 220.03,63.66 219.86,63.48C218.45,61.99 217.34,60.35 216.48,58.58C215.01,55.54 214.24,52.39 214.28,49.09C214.28,48.82 214.25,48.55 214.23,48.27C213.89,48.44 213.87,48.77 213.75,49.04C212.75,51.26 211.56,53.4 210.17,55.45C207.52,59.37 204.29,62.89 200.26,65.83C200,66.02 199.76,66.44 199.4,66.26C199.11,66.12 199.28,65.69 199.29,65.39C199.36,63.16 200.06,61.09 201.42,59.17C201.7,58.77 202.26,58.49 202.2,57.93C201.55,58.02 201.16,58.45 200.73,58.8C193.84,64.39 190.6,71.39 190.11,79.42C189.99,81.48 190.13,83.55 190.04,85.61C189.96,87.49 189.57,89.34 188.41,90.99C188.23,91.25 188.08,91.67 187.74,91.67C187.34,91.67 187.37,91.2 187.25,90.93C186.21,88.57 185.18,86.2 184.15,83.83C184.09,83.69 183.97,83.57 183.87,83.45C183.87,83.59 183.83,83.73 183.85,83.87C184.09,86.33 184.23,88.79 184.11,91.27C183.85,96.71 182.82,102.01 180.81,107.17C179.48,110.61 177.97,114.01 177.92,117.7C177.92,117.8 177.85,117.9 177.81,118C177.77,117.92 177.71,117.84 177.69,117.76C177.08,115.12 176.45,112.48 177,109.77C177.8,105.85 177.84,101.94 177.03,98.02C176.15,93.75 174.44,89.77 171.6,86.17C171.5,86.05 171.44,85.82 171.25,85.86C171.07,85.89 171.13,86.12 171.11,86.26C170.84,88.06 170.57,89.86 170.3,91.65C170.27,91.82 170.39,92.09 170.16,92.14C169.85,92.21 169.78,91.89 169.67,91.72C168.96,90.58 168.57,89.35 168.31,88.08C167.92,86.14 167.81,84.16 167.22,82.25C166.79,80.87 166.15,79.59 164.83,78.64C163.99,78.04 163.05,77.69 161.93,77.79C161.67,77.81 161.35,77.85 161.27,78.03C161.2,78.19 161.53,78.29 161.69,78.41C164.38,80.46 165.27,83.1 165.03,86.1C165.02,86.25 165.04,86.44 164.84,86.51C164.67,86.57 164.62,86.41 164.54,86.31C163.13,84.5 161.02,83.93 158.65,83.76C156.92,83.63 155.17,83.68 153.48,83.22C150.03,82.28 148.46,79.5 149.82,76.7C149.88,76.57 150.11,76.45 149.91,76.31C149.85,76.27 149.64,76.35 149.53,76.42C149.26,76.57 148.98,76.73 148.73,76.91C145.43,79.27 144.59,83.73 146.72,87.19C147.92,89.12 149.87,90.14 152.17,90.81C157.64,92.4 159.34,98.14 156.93,102.3C156.86,102.43 156.8,102.66 156.61,102.62C156.44,102.58 156.52,102.36 156.51,102.21C156.45,100.88 155.99,99.69 154.79,98.79C154.63,98.67 154.42,98.4 154.18,98.58C154.02,98.7 154.2,98.93 154.26,99.1C154.98,101.08 155.1,103.1 154.56,105.12C153.72,108.3 151.75,110.72 148.1,111.92C147.68,112.06 147.13,112.38 146.78,112.08C146.47,111.81 146.76,111.32 146.88,110.93C147.45,109.07 148.52,107.47 150.23,106.21C150.36,106.11 150.57,105.9 150.55,105.88C150.38,105.7 150.18,105.81 149.99,105.9C149.58,106.1 149.15,106.27 148.75,106.49C145.92,107.99 143.86,110.09 142.34,112.61C142.14,112.94 141.95,113.28 141.75,113.61C141.69,113.72 141.64,113.87 141.46,113.83C141.21,113.77 141.31,113.63 141.35,113.47C142.58,108.04 142.93,102.56 142.79,97.05C142.79,96.9 142.76,96.75 142.74,96.59C142.47,96.66 142.52,96.89 142.46,97.04C141.98,98.28 141.52,99.53 141.06,100.78C141.02,100.9 141.02,101.06 140.86,101.07C140.58,101.1 140.64,100.88 140.61,100.75C140.18,98.87 139.12,97.24 137.9,95.68C137.07,94.62 136.18,93.59 135.37,92.51C134.45,91.28 133.52,90.05 133.17,88.57C132.7,86.57 133.11,84.65 133.76,82.75C134.83,79.63 136.59,76.81 138.79,74.18C138.96,73.98 139.41,73.74 139.15,73.53C138.88,73.32 138.6,73.71 138.35,73.86C137.64,74.3 136.96,74.76 136.27,75.22C135.26,75.89 134.26,76.56 133.25,77.22C133.11,77.31 132.94,77.48 132.79,77.39C132.63,77.3 132.72,77.1 132.77,76.95C132.87,76.65 132.99,76.36 133.11,76.06C134.25,73.26 135.68,70.56 136.96,67.81C137.83,65.93 138.85,64.09 139.39,62.11C139.47,62.04 139.53,61.93 139.43,61.88C139.3,61.8 139.29,61.93 139.26,62.01C138.03,62.84 136.76,63.61 135.42,64.3C132.74,65.68 130.03,67 127.21,68.15C124.17,69.39 121.53,70.98 119.52,73.35C118.15,74.96 116.69,76.52 114.94,77.86C114.05,78.54 113.59,79.48 113.35,80.48C112.76,82.89 113.35,85.2 114.11,87.5C114.57,88.88 115.19,90.22 115.83,91.54C115.9,91.68 116.06,91.87 115.92,91.97C115.68,92.13 115.59,91.85 115.45,91.75C114.88,91.35 114.27,91.02 113.56,90.85C113.29,90.78 112.92,90.64 112.74,90.85C112.59,91.02 112.91,91.23 113.04,91.41C115.61,94.92 116.37,98.71 115.27,102.73C114.5,105.56 112.95,108.04 110.17,109.83C110.12,109.89 110.04,109.98 109.96,109.9C109.88,109.82 109.96,109.76 110.06,109.74C110.84,107.74 110.87,105.71 110.58,103.63C110.38,102.14 110.15,100.65 110.31,99.14C110.47,97.59 110.92,96.13 112.27,94.98C112.51,94.78 113.08,94.63 112.94,94.4C112.78,94.14 112.23,94.16 111.83,94.2C111.2,94.26 110.64,94.46 110.13,94.77C108.93,95.5 108.18,96.51 107.69,97.69C107.16,98.97 106.98,100.3 106.82,101.64C106.63,103.29 106.54,104.95 105.96,106.54C105.49,107.84 104.85,109.05 103.56,109.91C103.34,110.06 103.08,110.32 102.82,110.22C102.51,110.1 102.7,109.77 102.73,109.55C103.24,105.89 103.05,102.26 102.26,98.64C101.78,96.43 101.03,94.28 100.05,92.19C99.98,92.05 99.92,91.89 99.71,91.88C99.69,91.88 99.65,92.1 99.63,92.22C99.47,93.08 99.32,93.95 99.15,94.81C99.08,95.16 98.97,95.51 98.88,95.86C98.77,95.5 98.65,95.15 98.55,94.79C97.6,91.42 95.77,88.5 92.58,86.3C92.22,86.05 91.92,85.61 91.32,85.77C93.37,87.96 94.71,90.47 95.7,93.12C97.23,97.23 97.52,101.45 96.98,105.72C96.6,108.71 95.8,111.62 94.23,114.34C94.13,114.52 94.11,114.81 93.81,114.78C93.7,114.77 93.61,114.47 93.55,114.3C92.96,112.41 92.01,110.66 90.62,109.12C89.47,107.83 88.2,106.64 86.42,105.96C86.37,105.87 86.3,105.82 86.2,105.93C86.2,105.93 86.29,106 86.33,106.03C87.12,108.05 87.64,110.1 87.54,112.26C87.38,115.63 86.29,118.71 83.71,121.31C83.49,121.53 83.31,121.93 82.92,121.86C82.79,121.84 82.73,121.36 82.69,121.09C82.37,118.92 82.06,116.76 81.75,114.59C81.73,114.44 81.71,114.28 81.69,114.13C81.47,114.24 81.48,114.45 81.44,114.61C81.22,115.71 80.76,116.71 79.86,117.53C79.74,117.64 79.56,117.8 79.44,117.78C79.19,117.75 79.21,117.49 79.2,117.33C79.14,116.52 79.07,115.71 79.06,114.9C79,111.62 79.72,108.45 81.01,105.37C81.09,105.29 81.12,105.21 81.01,105.14C81.01,105.14 80.93,105.22 80.89,105.26C79.44,106 78.25,107.01 77.15,108.08C71.41,113.67 68.66,120.26 68.45,127.68C68.42,128.64 67.98,129.01 66.87,128.95C66.22,128.92 65.7,128.65 65.23,128.29C64.47,127.7 64.11,126.92 63.9,126.08C63.43,124.19 63.61,122.28 63.62,120.38C63.63,117.19 63.66,114 63.68,110.81C63.68,110.7 63.63,110.6 63.61,110.49C63.45,110.57 63.49,110.7 63.47,110.82C63.31,111.78 63.01,112.71 62.61,113.62C61.97,115.07 61.07,116.37 59.82,117.49C59.7,117.6 59.59,117.79 59.4,117.74C59.12,117.66 59.26,117.43 59.27,117.26C59.31,116.51 59.3,115.76 59.4,115.01C60.24,109.23 62.67,104.1 67.65,100C67.75,99.92 67.91,99.79 67.89,99.72C67.82,99.52 67.59,99.62 67.44,99.63C66.03,99.78 64.66,100.06 63.32,100.46C60.21,101.39 57.62,103.02 55.24,104.91C55.18,104.96 55.08,105.06 55.06,105.05C54.91,104.97 54.99,104.87 55.06,104.78C55.11,104.66 55.14,104.54 55.2,104.42C56.17,102.44 57.15,100.45 58.12,98.47C58.2,98.3 58.37,98.12 58.21,97.96C58.05,97.79 57.79,97.9 57.6,97.96C56.61,98.22 55.76,98.68 55.01,99.3C53.43,100.61 52.44,102.23 51.72,103.99C50.78,106.27 50.36,108.65 49.76,111C49.06,113.74 48.16,116.4 45.9,118.54C44.9,119.49 43.73,120.19 42.24,120.45C41.61,120.56 41.3,120.46 41.2,119.78C40.7,116.09 41.05,112.48 42.27,108.92C42.27,108.84 42.32,108.71 42.27,108.68C42.15,108.6 42.12,108.72 42.07,108.79C41.5,109.1 41.15,109.57 40.81,110.05C39.93,111.27 39.53,112.62 39.47,114.05C39.47,114.19 39.54,114.41 39.3,114.43C39.03,114.46 39.1,114.22 39.07,114.1C38.7,112.59 38.71,111.06 38.96,109.54C39.34,107.24 40.49,105.22 42.12,103.39C41.95,103.31 41.79,103.37 41.64,103.43C39.71,104.17 37.92,105.13 36.37,106.37C28.73,112.48 26.37,120.17 27.44,128.85C27.79,131.68 28.84,134.4 29.17,137.24C29.43,139.48 29.3,141.67 28.21,143.76C27.69,144.76 26.93,145.58 25.76,146.05C24.26,146.66 22.92,146.21 22.32,144.89C21.9,143.97 21.84,143 21.88,142.03C21.95,140.28 22.05,138.54 22.49,136.82C22.54,136.61 22.63,136.23 22.49,136.21C22.23,136.18 22.23,136.53 22.16,136.71C21.56,138.45 21.13,140.22 20.77,142C20.54,143.15 20.65,144.34 20.14,145.45L20.14,150.33L30.36,150.33C32.57,148.3 33.84,145.9 34.4,143.19C34.8,141.26 34.75,139.35 34.22,137.45C34.15,137.21 34.01,136.96 34.1,136.72C34.57,135.49 33.82,134.42 33.64,133.27C33.38,131.58 32.72,129.95 32.59,128.26C32.48,126.9 32.91,125.52 32.72,124.15C32.55,122.93 32.9,121.83 33.37,120.71C33.82,119.63 34.14,118.5 34.51,117.39C34.56,117.24 34.58,117.04 34.78,117.02C34.98,117 35.03,117.21 35.1,117.34C36,118.96 36.41,120.71 36.92,122.43C37.58,124.64 40.03,126.22 42.62,126.14C43.54,126.11 44.15,125.78 44.33,124.99C44.55,124.04 44.75,123.1 44.9,122.14C44.97,121.68 45.26,121.44 45.68,121.2C47.06,120.41 48.61,119.97 50.16,119.54C51.58,119.14 52.58,118.44 52.81,117.1C52.84,116.95 52.88,116.77 52.99,116.67C54.55,115.25 54.62,113.4 54.96,111.63C54.98,111.55 54.86,111.41 55,111.39C55.17,111.37 55.21,111.52 55.22,111.64C55.44,113.68 55.91,115.72 55.46,117.78C55.23,118.83 55.53,119.88 56.02,120.79C56.55,121.79 56.64,123.1 58.16,123.57C58.41,123.65 58.43,123.99 58.5,124.23C59.04,126.26 59.59,128.3 59.79,130.38C59.83,130.83 60.16,131.13 60.47,131.42C61.43,132.32 62.46,133.14 63.53,133.94C66.85,136.4 72.49,134.28 73.31,130.91C73.56,129.89 73.66,128.85 73.66,127.85C73.65,125.85 74.13,123.95 74.69,122.04C74.72,121.95 74.75,121.86 74.79,121.77C74.93,121.44 74.63,120.89 75.13,120.79C75.39,120.74 75.56,121.31 75.82,121.56C76.52,122.2 76.8,123.3 78.2,123.22C78.28,123.22 78.42,123.64 78.5,123.88C78.71,124.58 79,125.24 79.46,125.85C81.38,128.44 84.81,128.18 86.95,126.43C89.12,124.65 90.78,122.53 91.92,120.12C92.05,119.85 92.07,119.52 92.55,119.91C92.96,120.23 93.52,120.31 94.08,120.28C95.82,120.2 97.28,119.57 98.59,118.62C98.82,118.46 98.93,118.22 99,117.97C99.29,117.02 99.88,116.19 100.36,115.32C100.44,115.18 100.54,114.97 100.66,114.95C100.84,114.92 100.91,115.13 100.97,115.28C101.3,116.03 102.02,116.2 102.83,116.11C104.09,115.97 105.34,115.76 106.37,115.04C106.74,114.78 106.96,114.69 107.36,115.12C108.36,116.19 110.38,116.38 111.82,115.67C113.91,114.64 115.44,113.2 116.21,111.21C116.42,110.67 116.72,110.14 117.21,109.77C119.27,108.19 119.9,106.05 120.37,103.85C120.8,101.82 120.95,99.77 120.47,97.72C120.39,97.4 120.6,97.18 120.75,96.94C121.8,95.22 121.99,93.5 121.12,91.63C120.1,89.43 120.48,87.13 121.09,84.9C122.39,80.15 125.19,76.06 128.8,72.36C129.19,71.96 129.6,71.14 129.99,71.29C130.49,71.49 130.16,72.29 130.18,72.83C130.25,75.71 130,78.57 129.27,81.38C128.99,82.45 128.81,83.61 127.55,84.28C127.2,84.46 127.35,84.79 127.35,85.06C127.33,87.6 128.08,89.99 129.21,92.32C130.58,95.12 132.56,97.65 134.18,100.33C135.05,101.77 135.82,103.25 136.37,104.81C136.45,105.05 136.51,105.35 136.7,105.49C137.62,106.12 137.34,106.92 137.26,107.72C136.93,110.88 135.93,113.98 136.05,117.19C136.12,119.13 137.18,120.51 139.19,121.35C140.81,122.02 142.5,121.65 143.65,120.45C144.37,119.7 145.07,118.95 145.61,118.09C145.79,117.81 145.94,117.69 146.36,117.75C150.1,118.27 152.88,116.79 155.2,114.48C157.07,112.62 158.47,110.51 159.43,108.19C159.62,107.72 160.1,107.46 160.37,107.06C161.71,105.11 162.79,103.1 162.86,100.76C162.98,97.2 162.06,93.89 159.94,90.83C159.78,90.59 159.67,90.32 159.54,90.07C159.51,90.03 159.48,89.98 159.45,89.94C159.5,89.96 159.55,89.99 159.6,90.01C161.05,91.05 162.42,92.17 163.97,93.12C164.41,93.39 164.59,93.89 164.77,94.33C165.11,95.17 165.66,95.89 166.2,96.64C167.13,97.94 168.47,98.55 170.2,98.46C171.07,98.41 171.41,98.69 171.6,99.38C172.24,101.76 172.6,104.14 172.3,106.6C171.98,109.24 171.56,111.88 171.82,114.54C171.98,116.15 172.27,117.75 172.76,119.32C173.34,121.16 173.76,123.04 174.22,124.9C174.68,126.77 175.79,128.37 177.63,129.54C179.77,130.9 182,130.74 183.61,128.92C184.73,127.66 185.53,126.26 184.77,124.57C184.64,124.29 184.68,123.95 184.66,123.64C184.63,122.98 184.37,122.36 183.82,121.96C182.52,121.03 182.3,119.84 182.54,118.53C182.66,117.84 182.73,117.16 182.56,116.49C182.48,116.18 182.6,115.94 182.72,115.68C184.07,112.71 185.29,109.7 185.8,106.54C185.99,105.37 186.47,104.32 186.91,103.25C187.49,101.85 187.76,100.41 187.43,98.95C187.32,98.46 187.43,98.3 187.94,98.16C189.95,97.58 191.4,96.51 191.91,94.65C192,94.33 192.3,94.06 192.49,93.76C193.71,91.9 194.21,89.87 194.44,87.77C194.77,84.84 194.16,81.92 194.23,78.99C194.26,77.77 194.39,76.62 195.25,75.53C196.02,74.56 196.24,73.33 196.39,72.15C196.44,71.73 196.49,71.68 196.93,71.94C198.39,72.82 199.85,72.75 201.32,71.8C203.49,70.38 205.4,68.75 207.26,67.03C208.97,65.44 210.6,63.85 211.95,62.03C212.02,61.93 212.09,61.79 212.26,61.83C212.31,61.84 212.31,62 212.32,62.09C212.57,63.75 213.33,65.14 215.06,66.03C215.37,66.19 215.45,66.48 215.54,66.74C216.04,68.25 216.78,69.57 218.9,69.73C219.33,69.76 219.28,70.05 219.28,70.29C219.29,73.4 220.63,76.21 222.07,78.97C222.62,80.03 222.83,81.1 222.99,82.21C223.4,85.13 223.95,88.01 225.64,90.63C225.81,90.89 225.89,91.15 225.76,91.43C225.64,91.68 225.57,91.96 225.79,92.14C226.83,93 227.47,94.36 229.25,94.31C229.86,94.29 230.01,94.51 229.96,94.98C229.46,99.63 229.21,104.32 227.12,108.72C226.68,109.64 226.12,110.53 225.6,111.42C224.37,113.5 224.61,115.59 225.58,117.66C226.02,118.61 228.63,119.78 229.8,119.65C230.04,119.62 230.38,119.58 230.5,119.43C231.32,118.39 232.75,118.12 233.82,117.41C235.88,116.05 237.03,114.22 237.58,112.09C237.8,111.21 238.14,110.46 238.89,109.79C240.41,108.42 240.61,106.62 240.88,104.85C241.32,101.98 241.02,99.1 241.08,96.23C241.1,95.51 241.26,94.8 241.33,94.09C241.35,93.91 241.41,93.69 241.55,93.57C241.7,93.44 241.98,93.31 242.18,93.33C242.38,93.35 242.45,93.61 242.42,93.81C242.37,94.12 242.26,94.42 242.24,94.73C242.05,96.75 242.16,98.76 242.37,100.77C242.48,101.83 242.51,102.9 242.34,103.95C242.2,104.77 242.17,105.56 242.43,106.36C243.42,109.45 244.28,112.59 246.15,115.42C247.42,117.33 249.25,118.82 251.11,120.23C252.62,121.38 255.11,120.89 256.29,119.5C257.57,118 257.98,116.28 258.08,114.48C258.13,113.54 258.1,112.61 258.32,111.68C258.37,111.47 258.33,111.17 258.73,111.32C259.52,111.61 260.04,111.17 260.59,110.83C261.3,110.39 261.97,109.91 262.56,109.35C262.68,109.24 262.79,109.06 262.98,109.1C263.23,109.15 263.1,109.36 263.11,109.49C263.2,110.78 263.46,112 264.31,113.13C264.71,113.66 264.77,114.37 264.99,114.99C265.38,116.13 266.05,117.06 267.48,117.36C267.95,117.46 267.9,117.72 267.9,118C267.9,118.96 268.17,119.85 268.64,120.71C269.07,121.49 268.97,122.36 269.22,123.18C269.61,124.49 270.05,125.76 271.21,126.76C273.09,128.38 275.52,128.39 277.29,126.67C278.41,125.57 279.4,124.37 279.74,122.87C279.82,122.51 280.03,122.17 280.2,121.82C280.25,121.71 280.39,121.53 280.43,121.54C280.66,121.6 280.51,121.78 280.54,121.91C280.77,122.94 280.79,124.03 281.69,124.87C281.95,125.11 281.86,125.4 281.86,125.68C281.86,129.18 282.81,132.48 284.68,135.58C285.08,136.25 285.61,136.85 286.04,137.49C287.88,140.21 291.59,139.17 293.06,137.45C294.17,136.15 294.66,134.67 294.35,133.04C294.32,132.89 294.31,132.73 294.31,132.57C294.3,132.01 294.14,131.4 294.31,130.89C294.55,130.21 295.43,130.6 296.01,130.43C298.1,129.8 299.76,128.68 301.21,127.3C301.72,126.81 301.77,126.86 302.03,127.48C302.46,128.51 302.27,129.58 302.52,130.62C302.8,131.76 303.65,132.63 304.13,133.66C304.2,133.81 304.43,133.99 304.62,134.01C305.58,134.15 305.5,134.57 305.31,135.26C304.6,137.9 304.7,140.43 307.15,142.48C308.78,143.85 310.75,144.11 312.89,143.72C313.81,143.55 314.69,143.24 315.53,142.86C315.79,142.74 316.05,142.6 316.25,142.95C316.83,143.96 317.92,144.39 319.08,144.68C319.75,144.85 319.83,145.06 319.55,145.6C318.76,147.1 318,148.62 317.57,150.25C319.2,150.26 320.83,150.25 322.45,150.3C323.07,150.32 323.33,150.13 323.5,149.63C324.22,147.44 324.71,145.21 324.99,142.94C325.01,142.74 324.9,142.49 325.22,142.37L325.22,137.11C324.82,136.43 324.99,135.66 324.78,134.95L324.8,135Z" style="fill:rgb(195,29,41);fill-rule:nonzero;"/>
            <path d="M319.1,144.73C317.94,144.44 316.85,144.01 316.27,143C316.07,142.65 315.81,142.79 315.55,142.91C314.71,143.29 313.84,143.6 312.91,143.77C310.77,144.17 308.8,143.9 307.17,142.53C304.72,140.48 304.62,137.94 305.33,135.31C305.52,134.62 305.6,134.2 304.64,134.06C304.46,134.03 304.22,133.86 304.15,133.71C303.68,132.67 302.82,131.8 302.54,130.67C302.28,129.63 302.48,128.56 302.05,127.53C301.79,126.9 301.74,126.86 301.23,127.35C299.77,128.73 298.12,129.85 296.03,130.48C295.46,130.65 294.57,130.26 294.33,130.94C294.15,131.45 294.31,132.06 294.33,132.62C294.33,132.78 294.34,132.93 294.37,133.09C294.67,134.72 294.19,136.21 293.08,137.5C291.61,139.21 287.9,140.26 286.06,137.54C285.63,136.9 285.1,136.29 284.7,135.63C282.84,132.53 281.88,129.23 281.88,125.73C281.88,125.46 281.97,125.16 281.71,124.92C280.81,124.08 280.79,122.99 280.56,121.96C280.53,121.83 280.68,121.65 280.45,121.59C280.41,121.58 280.27,121.76 280.22,121.87C280.05,122.21 279.84,122.56 279.76,122.92C279.43,124.42 278.44,125.62 277.31,126.72C275.55,128.45 273.12,128.44 271.23,126.81C270.07,125.81 269.64,124.53 269.24,123.23C268.99,122.42 269.1,121.55 268.66,120.76C268.19,119.9 267.91,119.01 267.92,118.05C267.92,117.77 267.97,117.51 267.5,117.41C266.07,117.11 265.4,116.17 265.01,115.04C264.79,114.41 264.73,113.7 264.33,113.18C263.48,112.05 263.22,110.83 263.13,109.54C263.13,109.4 263.25,109.2 263,109.15C262.81,109.11 262.7,109.29 262.58,109.4C261.99,109.96 261.32,110.44 260.61,110.88C260.06,111.22 259.54,111.66 258.75,111.37C258.35,111.22 258.38,111.52 258.34,111.73C258.12,112.65 258.16,113.59 258.1,114.53C258,116.33 257.59,118.04 256.31,119.55C255.12,120.94 252.64,121.43 251.13,120.28C249.26,118.86 247.43,117.38 246.17,115.47C244.3,112.64 243.44,109.51 242.45,106.41C242.19,105.61 242.23,104.82 242.36,104C242.53,102.95 242.51,101.88 242.39,100.82C242.18,98.81 242.81,97.06 243,95.04C243,95.04 245.2,90.06 245,90.04C244.8,90.02 241.73,93.48 241.58,93.62C241.44,93.74 241.38,93.96 241.36,94.14C241.29,94.85 241.13,95.55 241.11,96.28C241.05,99.15 241.35,102.03 240.91,104.9C240.64,106.67 240.44,108.47 238.92,109.84C238.18,110.51 237.84,111.27 237.61,112.14C237.06,114.27 235.91,116.1 233.85,117.46C232.77,118.17 231.35,118.45 230.53,119.48C230.42,119.62 230.08,119.67 229.83,119.7C228.66,119.84 226.06,118.66 225.61,117.71C224.65,115.64 224.4,113.55 225.63,111.47C226.16,110.58 226.71,109.7 227.15,108.77C229.24,104.37 229.49,99.68 229.99,95.03C230.04,94.56 229.89,94.35 229.28,94.36C227.5,94.41 226.86,93.05 225.82,92.19C225.6,92.01 225.67,91.73 225.79,91.48C225.93,91.2 225.85,90.94 225.67,90.68C223.97,88.06 223.42,85.18 223.02,82.26C222.86,81.15 222.65,80.07 222.1,79.02C220.67,76.26 219.33,73.45 219.31,70.34C219.31,70.1 219.36,69.81 218.93,69.78C216.81,69.62 216.07,68.31 215.57,66.79C215.48,66.52 215.41,66.24 215.09,66.08C213.35,65.19 212.59,63.8 212.35,62.14C212.34,62.05 212.33,61.89 212.29,61.88C212.12,61.84 212.05,61.99 211.98,62.08C210.63,63.9 209,65.49 207.29,67.08C205.43,68.81 203.52,70.44 201.35,71.85C199.89,72.81 198.43,72.87 196.96,71.99C196.52,71.73 196.48,71.78 196.42,72.2C196.27,73.38 196.05,74.61 195.28,75.58C194.41,76.67 194.28,77.82 194.26,79.04C194.19,81.97 194.8,84.88 194.47,87.82C194.23,89.92 193.74,91.95 192.52,93.81C192.32,94.11 192.02,94.38 191.94,94.7C191.43,96.57 189.98,97.63 187.97,98.21C187.47,98.36 187.35,98.51 187.46,99C187.79,100.47 187.52,101.9 186.94,103.3C186.5,104.38 186.02,105.42 185.83,106.59C185.32,109.75 184.09,112.76 182.75,115.73C182.63,115.99 182.51,116.23 182.59,116.54C182.77,117.22 182.7,117.89 182.57,118.58C182.33,119.89 182.56,121.08 183.85,122.01C184.4,122.41 184.66,123.03 184.69,123.69C184.71,124 184.67,124.34 184.8,124.62C185.56,126.3 184.76,127.71 183.64,128.97C182.03,130.78 179.8,130.95 177.66,129.59C175.81,128.42 174.7,126.82 174.25,124.95C173.79,123.08 173.37,121.21 172.79,119.37C172.3,117.8 172.01,116.2 171.85,114.59C171.59,111.93 172.01,109.29 172.33,106.65C172.63,104.19 172.27,101.81 171.63,99.43C171.44,98.74 171.1,98.46 170.23,98.51C168.51,98.6 167.16,97.99 166.23,96.69C165.7,95.94 165.14,95.22 164.8,94.38C164.62,93.94 164.44,93.43 164,93.17C162.45,92.22 161.08,91.1 159.63,90.06C159.58,90.04 159.53,90.01 159.48,89.99C159.51,90.03 159.54,90.08 159.57,90.12C159.7,90.38 159.8,90.64 159.97,90.88C162.09,93.94 163.01,97.25 162.89,100.81C162.81,103.15 161.74,105.16 160.4,107.11C160.13,107.51 159.65,107.78 159.46,108.24C158.5,110.56 157.1,112.67 155.23,114.53C152.91,116.84 150.13,118.32 146.39,117.8C145.97,117.74 145.81,117.86 145.64,118.14C145.1,118.99 144.4,119.75 143.68,120.5C142.53,121.7 140.83,122.08 139.22,121.4C137.21,120.56 136.16,119.18 136.08,117.24C135.96,114.03 136.96,110.94 137.29,107.77C137.37,106.97 137.65,106.16 136.73,105.54C136.53,105.41 136.48,105.1 136.4,104.86C135.85,103.3 135.08,101.82 134.21,100.38C132.59,97.69 130.61,95.17 129.24,92.37C128.11,90.05 127.36,87.65 127.38,85.11C127.38,84.85 127.23,84.52 127.58,84.33C128.85,83.67 129.03,82.5 129.3,81.43C130.03,78.62 130.28,75.76 130.21,72.88C130.2,72.34 130.52,71.54 130.02,71.34C129.63,71.18 129.21,72.01 128.83,72.41C125.22,76.11 122.41,80.2 121.12,84.95C120.51,87.18 120.13,89.48 121.15,91.68C122.02,93.55 121.82,95.27 120.78,96.99C120.63,97.23 120.43,97.45 120.5,97.77C120.98,99.82 120.83,101.86 120.4,103.9C119.93,106.1 119.31,108.23 117.24,109.82C116.76,110.19 116.45,110.71 116.24,111.26C115.47,113.25 113.94,114.69 111.85,115.72C110.41,116.43 108.4,116.24 107.39,115.17C106.99,114.74 106.77,114.83 106.4,115.09C105.37,115.81 104.12,116.02 102.86,116.16C102.06,116.25 101.33,116.08 101,115.33C100.93,115.18 100.87,114.98 100.69,115C100.57,115.02 100.47,115.23 100.39,115.37C99.91,116.24 99.31,117.07 99.03,118.02C98.96,118.27 98.84,118.5 98.62,118.67C97.31,119.61 95.84,120.24 94.11,120.33C93.54,120.36 92.98,120.28 92.58,119.96C92.1,119.58 92.08,119.9 91.95,120.17C90.82,122.58 89.15,124.7 86.98,126.48C84.84,128.23 81.41,128.5 79.49,125.9C79.04,125.29 78.75,124.62 78.53,123.93C78.46,123.69 78.32,123.27 78.23,123.27C76.83,123.34 76.55,122.24 75.85,121.61C75.58,121.37 75.42,120.79 75.16,120.84C74.66,120.94 74.96,121.49 74.82,121.82C74.78,121.91 74.74,122 74.72,122.09C74.17,124 73.68,125.9 73.69,127.9C73.69,128.9 73.59,129.94 73.34,130.96C72.52,134.33 66.88,136.45 63.56,133.99C62.48,133.19 61.45,132.36 60.5,131.47C60.19,131.18 59.87,130.88 59.82,130.43C59.62,128.34 59.07,126.31 58.53,124.28C58.46,124.03 58.44,123.69 58.19,123.62C56.67,123.15 56.57,121.84 56.05,120.84C55.57,119.92 55.26,118.88 55.49,117.83C55.95,115.76 55.48,113.73 55.25,111.69C55.24,111.57 55.21,111.41 55.03,111.44C54.89,111.46 55.01,111.6 54.99,111.68C54.65,113.45 54.59,115.3 53.02,116.72C52.91,116.82 52.87,117 52.84,117.15C52.61,118.5 51.61,119.19 50.19,119.59C48.64,120.02 47.09,120.46 45.71,121.25C45.29,121.49 45.01,121.74 44.93,122.19C44.78,123.14 44.57,124.09 44.36,125.04C44.18,125.83 43.57,126.16 42.65,126.19C40.05,126.27 37.6,124.69 36.95,122.48C36.44,120.76 36.03,119.01 35.13,117.39C35.06,117.26 35.01,117.05 34.81,117.07C34.61,117.09 34.6,117.29 34.54,117.44C34.17,118.55 33.85,119.67 33.4,120.76C32.93,121.88 32.58,122.98 32.75,124.2C32.94,125.57 32.51,126.95 32.62,128.31C32.75,130 33.41,131.63 33.67,133.32C33.85,134.47 34.6,135.54 34.13,136.77C34.04,137.01 34.18,137.26 34.25,137.5C34.78,139.4 34.83,141.32 34.43,143.24C33.87,145.95 32.59,148.35 30.39,150.36C32.21,150.37 34.04,150.39 35.86,150.4C36.77,149.12 37.01,147.65 37.35,146.23C37.92,143.78 38.15,141.29 38.03,138.79C37.85,135.13 37.18,131.55 35.79,128.08C35.71,127.87 35.63,127.67 35.54,127.46C35.47,127.31 35.36,127.12 35.52,127.03C35.68,126.95 35.83,127.14 35.94,127.25C36.94,128.22 38.23,128.9 39.51,129.53C41.25,130.38 43.15,130.84 45.2,130.64C46.92,130.47 48.19,129.23 48.28,127.6C48.32,126.79 48.28,125.97 48.29,125.16C48.29,124.16 48.66,123.88 49.79,123.98C50.57,124.05 51.18,124 51.61,123.27C52.01,122.59 52.32,122.65 52.78,123.36C53.13,123.91 53.35,124.51 53.58,125.1C53.82,125.72 54.1,126.34 54.87,126.64C55.03,126.7 55.19,126.79 55.23,126.97C55.54,128.58 56.49,130.12 56.01,131.82C55.95,132.03 56.05,132.19 56.14,132.35C57.94,135.6 60.65,137.97 64.77,138.99C65.72,139.22 66.56,139.15 67.3,138.57C68.18,137.87 69.3,137.6 70.41,137.64C72.58,137.72 73.93,136.71 75.08,135.35C76.34,133.85 76.91,132.11 77.24,130.31C77.31,129.92 77.31,129.68 77.82,130.03C78.64,130.6 79.68,130.49 80.63,130.62C81.57,130.75 82.35,131.07 83.04,131.59C84,132.31 84.48,132.37 85.54,131.7C86.39,131.17 87.16,130.55 87.96,129.97C88.3,129.72 88.67,129.47 89.12,129.52C90.04,129.63 90.51,129.14 90.99,128.61C92.52,126.91 93.89,125.1 95.75,123.63C97.19,122.49 98.77,121.66 100.69,121.21C101.46,121.03 102.61,120.97 102.77,119.9C102.84,119.47 103.14,119.61 103.37,119.81C103.75,120.16 104.2,120.42 104.72,120.58C105.38,120.78 106.02,120.85 106.37,120.15C106.67,119.53 107.29,119.72 107.78,119.8C109.16,120.02 110.53,120.33 111.9,120.59C114.22,121.03 115.78,120.29 116.56,118.36C117.15,116.88 118.35,115.73 119.32,114.46C121.11,112.13 122.65,109.7 123.58,107.01C124.05,105.66 124.34,104.3 124.37,102.88C124.44,99.6 124.64,96.33 124.57,93.05C124.53,91.13 124.6,89.2 124.36,87.29C124.35,87.17 124.24,87 124.47,86.92C124.51,87.03 124.56,87.14 124.59,87.26C125.35,90.38 126.49,93.4 127.9,96.35C129.59,99.9 131.48,103.38 132.81,107.05C132.96,107.46 133.46,107.57 133.54,108.04C133.67,108.83 133.61,109.54 133.28,110.31C132.89,111.21 132.89,112.21 132.89,113.17C132.89,114.81 132.46,116.38 132.28,117.99C131.74,122.74 134.51,125.7 140.29,125.8C140.71,125.8 140.96,125.67 141.16,125.36C141.36,125.06 141.58,124.77 141.86,124.53C142.71,123.78 143.45,123.74 144.26,124.52C144.71,124.95 144.79,124.69 145,124.4C145.34,123.92 145.68,123.44 146.07,122.99C146.55,122.43 147.2,122.03 148.03,122.26C149.05,122.54 149.9,122.2 150.69,121.78C151.76,121.2 152.75,120.51 153.79,119.89C154.11,119.7 154.47,119.44 154.83,119.42C156.04,119.35 156.61,118.75 156.99,117.84C157.23,117.26 157.78,116.85 158.46,116.66C159.3,116.42 159.79,115.93 160.06,115.25C160.36,114.5 160.84,113.84 161.45,113.26C161.55,113.17 161.68,113.08 161.73,112.97C162.43,111.26 164.11,110.1 165.06,108.55C167.13,105.18 166.89,101.9 164.2,98.81C164.1,98.69 164.06,98.53 164,98.39C163.97,98.36 163.94,98.33 163.91,98.3C163.94,98.33 163.98,98.35 164.01,98.38C165.37,98.3 166.27,98.99 167,99.83C168.28,101.29 168.83,103.03 168.97,104.81C169.12,106.7 169.08,108.58 168.42,110.47C167.75,112.37 168.07,114.39 168.2,116.35C168.34,118.33 168.61,120.32 169.24,122.24C169.65,123.47 169.92,124.71 170.22,125.95C171.01,129.19 173.13,131.71 176.46,133.38C178.46,134.38 180.65,134.69 182.93,134.06C183.56,133.88 184.17,133.5 184.9,133.83C185.07,133.9 185.23,133.73 185.35,133.62C187.33,131.81 188.92,129.82 188.84,127.19C188.8,125.92 188.26,124.69 188.36,123.4C188.38,123.18 188.2,122.95 187.88,122.83C186.84,122.42 186.11,121.45 186.25,120.47C186.47,118.93 186.46,117.36 186.89,115.84C187.07,115.21 187.3,114.57 187.59,113.97C187.72,113.7 187.81,113.33 188.39,113.35C188.75,113.36 188.77,112.95 188.84,112.69C189.18,111.48 189.28,110.23 189.48,109C189.78,107.13 189.89,105.23 190.75,103.44C191.17,102.57 191.22,101.56 191.45,100.62C191.52,100.35 191.56,100.03 191.93,99.95C192.32,99.86 192.51,100.16 192.72,100.36C193.8,101.43 193.87,101.42 194.46,100.11C195.72,97.32 196.94,94.52 197.61,91.56C198.08,89.47 198.27,87.4 198.07,85.25C197.91,83.6 197.61,81.9 197.97,80.23C198.05,79.85 198.13,79.49 198.69,79.4C198.92,79.36 199.06,79.18 199.06,78.98C199.04,78.48 199.11,78.41 199.61,78.77C199.92,78.99 200.18,78.6 200.33,78.38C200.74,77.79 201.12,77.19 201.48,76.57C201.75,76.11 202.13,75.79 202.76,75.88C203.58,75.99 204.13,75.61 204.72,75.24C206.3,74.25 207.74,73.1 209.46,72.28C210.33,71.86 211.31,71.62 211.91,70.8C212.19,70.42 212.31,70.86 212.42,71.06C213.04,72.19 213.66,73.32 214.52,74.34C215.24,75.2 215.25,75.23 216.27,74.64C216.94,74.26 216.71,74.78 216.71,74.96C216.73,76.49 216.88,78.01 217.42,79.48C217.56,79.86 217.63,80.46 218.36,79.82C218.72,79.51 218.84,79.85 218.89,80.1C219.05,80.96 219.24,81.82 219.32,82.68C219.43,83.92 219.68,85.16 219.55,86.42C219.48,87.08 219.74,87.72 219.78,88.37C219.78,88.53 219.78,88.74 219.99,88.76C220.86,88.85 220.74,89.45 220.88,89.94C221.41,91.72 221.96,93.49 222.53,95.27C222.77,96.01 222.62,96.82 223.16,97.5C223.4,97.8 223.54,98.1 224.07,97.86C224.37,97.73 224.58,97.98 224.82,98.12C225.31,98.4 224.97,99.43 226.07,99.14C226.07,99.3 226.11,99.45 226.1,99.61C225.93,101.19 225.78,102.77 225.57,104.35C225.33,106.14 224.34,107.21 224.08,109C223.85,110.57 223.2,113.39 222.96,114.96C222.72,116.47 222.96,117.39 222.96,118.92C222.96,119.45 223.68,120.05 223.55,120.58C223.32,121.49 223.81,122.11 224.84,122.47C225.62,122.74 226.44,122.84 227.26,122.98C228.48,123.19 229.46,123.54 230.05,124.64C230.77,125.98 231.77,125.93 232.64,124.66C232.71,124.55 232.79,124.44 232.84,124.33C233.27,123.18 233.89,122.33 235.43,121.91C236.76,121.55 237.59,120.4 238.34,119.35C239.15,118.23 239.79,117.04 240.39,115.84C240.51,115.6 240.58,115.19 240.92,115.23C241.27,115.27 241.19,115.7 241.25,115.95C241.59,117.38 242.53,118.55 243.82,119.33C244.88,119.97 245.51,120.71 245.93,121.68C246.48,122.96 247.79,123.37 249.12,123.34C250.93,123.29 252.25,123.8 253.34,125.03C254.03,125.81 255.58,125.87 256.73,125.25C258.61,124.24 259.65,122.66 260.46,120.97C260.88,120.09 261.33,119.18 261.4,118.2C261.4,118.11 261.42,117.94 261.45,117.94C261.62,117.91 261.68,118.06 261.74,118.16C261.86,118.39 261.95,118.63 262.07,118.85C262.3,119.28 262.61,119.65 263.16,119.84C264.01,120.14 264.45,120.69 264.46,121.51C264.46,121.78 264.59,122.06 264.66,122.33C264.69,122.46 264.86,122.62 264.91,122.56C265.42,121.96 265.26,122.47 265.31,122.72C265.9,125.88 267.07,128.82 269.69,131.2C270.02,131.5 270.42,131.71 270.86,131.86C272.1,132.3 272.63,132.08 272.93,130.98C272.97,130.83 272.92,130.64 273.14,130.59C273.42,130.54 273.54,130.73 273.56,130.92C273.67,131.86 274.56,132.4 275.06,133.14C275.54,133.86 276.2,133.85 276.8,133.2C277.29,132.66 277.77,132.11 278.14,131.5C278.24,131.33 278.26,131 278.57,131.05C278.86,131.09 278.82,131.4 278.89,131.6C279.53,133.42 280.15,135.24 280.8,137.06C281.21,138.19 281.72,139.29 282.43,140.32C282.64,140.62 282.88,140.89 283.17,141.13C284.05,141.87 284.32,141.82 284.68,140.81C284.73,140.68 284.63,140.46 284.86,140.46C284.94,140.46 285.09,140.71 285.1,140.84C285.14,141.43 285.13,142.03 285.18,142.62C285.19,142.83 285.27,143.11 285.51,143.17C285.84,143.26 285.74,142.95 285.82,142.8C285.92,142.59 285.99,142.73 286.08,142.82C287.38,143.99 288.11,144.05 289.21,142.82C290.12,141.81 291.22,141.4 292.61,141.59C294.12,141.8 295.05,141.24 295.8,140.16C297.15,138.22 298.09,136.2 298.01,133.89C298.01,133.7 298,133.51 298.03,133.33C298.08,133.02 298.12,132.54 298.38,132.51C298.82,132.45 298.76,132.95 298.87,133.21C299.1,133.78 299.83,133.91 300.17,134.42C300.38,134.74 300.55,135.02 300.68,135.38C300.89,135.96 300.62,136.68 301.44,137.12C301.64,137.23 301.49,137.83 301.51,138.2C301.6,140.1 302.09,141.92 303.27,143.54C304.82,145.67 307.76,146.68 310.62,146.19C312.04,145.94 313.44,145.63 314.77,145.14C315.2,144.98 315.41,145.03 315.6,145.39C315.79,145.76 316.01,146.14 316.31,146.44C317.44,147.56 317.19,148.65 316.31,149.76C316.15,149.97 316.02,150.19 315.87,150.4L317.59,150.4C318.02,148.78 318.78,147.26 319.57,145.75C319.85,145.21 319.77,145 319.1,144.83L319.1,144.73Z" style="fill:rgb(247,144,0);fill-rule:nonzero;"/>
        </g>
        <g id="FLAMES">
            <path id="S" d="M325.42,154.87C325.42,156.2 324.76,156.86 323.51,156.86L302.84,156.86C301.6,156.86 300.93,157.52 300.93,158.93L300.93,163.58C300.93,165.16 301.59,168.65 302.84,168.82L319.52,171.48C324.08,172.23 326.33,175.3 326.33,180.69L326.33,209.21C326.33,218.92 322.01,223.73 313.38,223.73L306.45,223.73L306.41,212.36C307.66,212.36 308.32,211.7 308.32,210.29L308.32,188.16C308.32,186.75 307.66,185.92 306.41,185.67L290.64,182.18C284.91,180.93 283.09,175.44 283.09,170.13L283.09,156.35C283.09,149.13 286.66,145.48 293.88,145.48L323.51,145.48C324.75,145.48 325.42,146.06 325.42,147.31L325.42,154.87Z" style="fill-rule:nonzero;"/>
            <path id="E" d="M277.87,154.87C277.87,156.2 277.29,156.86 276.04,156.86L260.27,156.86C259.44,156.86 259.02,157.28 259.02,158.11L259.02,167.57C259.02,168.4 259.44,168.82 260.27,168.82L275.54,168.82C276.62,168.82 277.2,169.4 277.2,170.65L277.2,174.47C277.2,175.8 276.7,176.55 275.62,176.79L267.74,178.7C266.33,179.03 265.08,179.36 263.76,179.36L259.28,179.36C258.12,179.36 257.54,180.02 257.54,181.43L257.54,190.97C257.54,191.8 257.95,192.22 258.78,192.22L276.71,192.22C277.96,192.22 278.54,192.88 278.54,194.21L278.54,201.01C278.54,202.75 277.79,203.58 276.3,203.58L244.51,203.58C239.7,203.58 237.29,201.42 237.29,197.11L237.29,179.6C237.29,178.35 237.62,177.28 238.2,176.36L242.76,169.55C243.42,168.55 243.76,167.39 243.76,166.15L243.76,149.8C243.76,146.9 245.25,145.48 248.24,145.48L276.04,145.48C277.28,145.48 277.87,146.14 277.87,147.47L277.87,154.87Z" style="fill-rule:nonzero;"/>
            <g id="M">
                <path d="M183.15,155.57L177.18,155.57C176.52,155.57 176.18,155.9 176.18,156.57L176.18,160.31L184.06,160.31L184.06,156.57C184.06,155.91 183.73,155.57 183.15,155.57Z" style="fill:none;fill-rule:nonzero;"/>
                <path d="M211.04,160.31L211.04,158.06C211.04,156.4 210.21,155.57 208.63,155.57L204.15,155.57C203.57,155.57 203.24,155.9 203.24,156.57L203.24,160.31" style="fill:none;fill-rule:nonzero;"/>
                <path d="M230.47,150.6L228.96,150.6C229.24,151.28 229.45,152.02 229.6,152.83L231.11,152.83C230.96,152.02 230.75,151.28 230.47,150.6Z" style="fill:rgb(236,0,0);fill-rule:nonzero;"/>
                <path d="M204.15,155.57L202.64,155.57C202.06,155.57 201.73,155.9 201.73,156.57L201.73,160.31L203.24,160.31L203.24,156.57C203.24,155.91 203.57,155.57 204.15,155.57Z" style="fill:rgb(236,0,0);fill-rule:nonzero;"/>
                <path d="M177.18,155.57L175.67,155.57C175.01,155.57 174.67,155.9 174.67,156.57L174.67,160.31L176.18,160.31L176.18,156.57C176.18,155.91 176.51,155.57 177.18,155.57Z" style="fill:rgb(236,0,0);fill-rule:nonzero;"/>
                <path d="M230.03,153.33L228.52,153.33C228.64,154.15 228.71,155.03 228.71,155.98L228.71,160.3L230.22,160.3L230.22,155.98C230.22,155.03 230.15,154.15 230.03,153.33Z" style="fill:rgb(236,0,0);fill-rule:nonzero;"/>
                <rect x="229.88" y="162.58" width="1.51" height="2.53" style="fill:rgb(236,0,0);fill-rule:nonzero;"/>
                <rect x="202.91" y="162.58" width="1.5" height="2.53" style="fill:rgb(236,0,0);fill-rule:nonzero;"/>
                <rect x="202.91" y="165.88" width="1.16" height="1.32" style="fill:rgb(236,0,0);fill-rule:nonzero;"/>
                <path d="M228.56,147.76C226.77,146.05 224.12,145.2 220.6,145.2L219.09,145.2C222.61,145.2 225.26,146.06 227.05,147.76L228.56,147.76Z" style="fill:rgb(236,0,0);fill-rule:nonzero;"/>
                <rect x="175.85" y="162.58" width="1.51" height="2.53" style="fill:rgb(236,0,0);fill-rule:nonzero;"/>
                <rect x="175.85" y="165.88" width="1.16" height="1.32" style="fill:rgb(236,0,0);fill-rule:nonzero;"/>
                <rect x="229.88" y="165.88" width="1.16" height="1.32" style="fill:rgb(236,0,0);fill-rule:nonzero;"/>
                <path d="M230.29,150.6L231.8,150.6C231.39,149.59 230.84,148.73 230.15,148L228.64,148C229.33,148.72 229.88,149.59 230.29,150.6Z" style="fill:rgb(236,0,0);fill-rule:nonzero;"/>
                <path d="M229.69,153.33L231.2,153.33C231.17,153.16 231.14,153 231.11,152.83L229.6,152.83C229.63,152.99 229.67,153.16 229.69,153.33Z" style="fill:rgb(236,0,0);fill-rule:nonzero;"/>
                <rect x="175.85" y="160.56" width="1.51" height="2.02" style="fill:rgb(236,0,0);"/>
                <rect x="229.88" y="160.56" width="1.51" height="2.02" style="fill:rgb(236,0,0);"/>
                <rect x="202.91" y="160.56" width="1.51" height="2.02" style="fill:rgb(236,0,0);"/>
                <rect x="203.74" y="165.11" width="1.5" height="0.77" style="fill:rgb(236,0,0);fill-rule:nonzero;"/>
                <rect x="176.68" y="165.11" width="1.51" height="0.77" style="fill:rgb(236,0,0);fill-rule:nonzero;"/>
                <rect x="230.71" y="165.11" width="1.51" height="0.77" style="fill:rgb(236,0,0);fill-rule:nonzero;"/>
                <rect x="158.6" y="150.6" width="1.15" height="2.23" style="fill:rgb(0,255,228);"/>
                <path d="M185.22,156.57C185.22,155.91 184.89,155.57 184.31,155.57L183.16,155.57C183.74,155.57 184.07,155.9 184.07,156.57L184.07,160.31L185.22,160.31L185.22,156.57Z" style="fill:rgb(0,255,228);fill-rule:nonzero;"/>
                <rect x="157.43" y="153.33" width="1.15" height="6.98" style="fill:rgb(0,255,228);"/>
                <path d="M212.19,158.06C212.19,156.4 211.36,155.57 209.78,155.57L208.63,155.57C210.21,155.57 211.04,156.4 211.04,158.06L211.04,160.31L212.19,160.31L212.19,158.06Z" style="fill:rgb(0,255,228);fill-rule:nonzero;"/>
                <rect x="212.21" y="162.58" width="1.16" height="2.53" style="fill:rgb(0,255,228);fill-rule:nonzero;"/>
                <rect x="185.24" y="162.58" width="1.15" height="2.53" style="fill:rgb(0,255,228);fill-rule:nonzero;"/>
                <rect x="184.89" y="165.88" width="1.5" height="1.32" style="fill:rgb(0,255,228);fill-rule:nonzero;"/>
                <path d="M163.07,145.2L161.92,145.2C159.95,145.2 158.9,146.05 158.66,147.76L159.81,147.76C160.04,146.04 161.1,145.2 163.07,145.2Z" style="fill:rgb(0,255,228);fill-rule:nonzero;"/>
                <rect x="158.6" y="162.58" width="1.15" height="2.53" style="fill:rgb(0,255,228);fill-rule:nonzero;"/>
                <path d="M159.76,165.88L158.26,165.88C158.26,166.33 158.2,166.77 158.11,167.2L159.61,167.2C159.7,166.77 159.76,166.33 159.76,165.88Z" style="fill:rgb(0,255,228);fill-rule:nonzero;"/>
                <rect x="211.87" y="165.88" width="1.5" height="1.32" style="fill:rgb(0,255,228);fill-rule:nonzero;"/>
                <path d="M161.08,148.52C161.08,148.34 161.1,148.18 161.11,148.01L159.96,148.01C159.94,148.17 159.93,148.34 159.93,148.52L159.93,150.61L161.08,150.61L161.08,148.52Z" style="fill:rgb(0,255,228);fill-rule:nonzero;"/>
                <rect x="158.6" y="152.84" width="1.15" height="0.5" style="fill:rgb(0,255,228);"/>
                <rect x="158.6" y="160.56" width="1.15" height="2.02" style="fill:rgb(0,255,228);"/>
                <rect x="212.21" y="160.56" width="1.15" height="2.02" style="fill:rgb(0,255,228);"/>
                <rect x="185.24" y="160.56" width="1.15" height="2.02" style="fill:rgb(0,255,228);"/>
                <rect x="186.07" y="165.11" width="1.15" height="0.77" style="fill:rgb(0,255,228);fill-rule:nonzero;"/>
                <rect x="159.43" y="165.11" width="1.15" height="0.77" style="fill:rgb(0,255,228);fill-rule:nonzero;"/>
                <rect x="213.04" y="165.11" width="1.15" height="0.77" style="fill:rgb(0,255,228);fill-rule:nonzero;"/>
                <path d="M228.52,153.33L158.58,153.33L158.58,160.31L174.68,160.31L174.68,156.57C174.68,155.91 175.01,155.57 175.68,155.57L184.31,155.57C184.89,155.57 185.22,155.9 185.22,156.57L185.22,160.31L201.74,160.31L201.74,156.57C201.74,155.91 202.07,155.57 202.65,155.57L209.79,155.57C211.37,155.57 212.2,156.4 212.2,158.06L212.2,160.31L228.72,160.31L228.72,155.99C228.72,155.04 228.65,154.16 228.53,153.34L228.52,153.33Z" style="fill-rule:nonzero;"/>
                <rect x="201.41" y="165.88" width="1.5" height="1.32" style="fill-rule:nonzero;"/>
                <rect x="186.39" y="165.88" width="1.16" height="1.32" style="fill-rule:nonzero;"/>
                <rect x="187.55" y="165.88" width="13.86" height="1.32" style="fill-rule:nonzero;"/>
                <path d="M227.05,147.76C225.26,146.05 222.61,145.2 219.09,145.2L217.94,145.2C221.46,145.2 224.11,146.06 225.9,147.76L227.05,147.76Z" style="fill-rule:nonzero;"/>
                <path d="M159.82,147.76L161.33,147.76C161.56,146.04 162.62,145.2 164.59,145.2L163.08,145.2C161.11,145.2 160.06,146.05 159.82,147.76Z" style="fill-rule:nonzero;"/>
                <path d="M161.32,147.76L225.9,147.76C224.11,146.05 221.46,145.2 217.94,145.2L164.58,145.2C162.61,145.2 161.56,146.05 161.32,147.76Z" style="fill-rule:nonzero;"/>
                <rect x="174.35" y="165.88" width="1.5" height="1.32" style="fill-rule:nonzero;"/>
                <path d="M160.91,165.88L159.75,165.88C159.75,166.33 159.69,166.77 159.6,167.2L160.76,167.2C160.85,166.77 160.91,166.33 160.91,165.88Z" style="fill-rule:nonzero;"/>
                <path d="M174.36,165.88L160.92,165.88C160.92,166.33 160.86,166.77 160.77,167.2L174.36,167.2L174.36,165.88Z" style="fill-rule:nonzero;"/>
                <rect x="228.38" y="165.88" width="1.5" height="1.32" style="fill-rule:nonzero;"/>
                <rect x="213.37" y="165.88" width="1.16" height="1.32" style="fill-rule:nonzero;"/>
                <rect x="214.53" y="165.88" width="13.85" height="1.32" style="fill-rule:nonzero;"/>
                <path d="M228.64,148.01L161.11,148.01C161.09,148.17 161.08,148.34 161.08,148.52L161.08,150.61L230.29,150.61C229.88,149.6 229.33,148.74 228.64,148.01Z" style="fill-rule:nonzero;"/>
                <path d="M229.6,152.84C229.45,152.03 229.24,151.29 228.96,150.61L159.75,150.61L159.75,153.34L229.69,153.34C229.66,153.17 229.63,153.01 229.6,152.84Z" style="fill-rule:nonzero;"/>
                <rect x="159.75" y="160.56" width="16.1" height="4.55" style="fill-rule:nonzero;"/>
                <rect x="213.37" y="160.56" width="16.51" height="4.55" style="fill-rule:nonzero;"/>
                <rect x="186.39" y="160.56" width="16.52" height="4.55" style="fill-rule:nonzero;"/>
                <rect x="187.22" y="165.11" width="16.52" height="0.77" style="fill-rule:nonzero;"/>
                <rect x="160.58" y="165.11" width="16.1" height="0.77" style="fill-rule:nonzero;"/>
                <rect x="214.19" y="165.11" width="16.52" height="0.77" style="fill-rule:nonzero;"/>
                <rect x="227.55" y="160.31" width="1.15" height="0.12" style="fill:white;"/>
                <rect x="189.9" y="184.39" width="16.52" height="2.95" style="fill:rgb(236,0,0);"/>
                <rect x="189.9" y="187.84" width="16.52" height="3.39" style="fill:rgb(236,0,0);"/>
                <rect x="191.55" y="167.78" width="16.52" height="4.29" style="fill:rgb(236,0,0);"/>
                <rect x="188.2" y="172.56" width="16.52" height="9.11" style="fill:rgb(236,0,0);"/>
                <path d="M181.01,167.78L164.64,167.78C164.47,168.33 164.23,168.86 163.91,169.34L162.08,172.07L181.01,172.07L181.01,167.78Z" style="fill:rgb(236,0,0);fill-rule:nonzero;"/>
                <rect x="216.87" y="187.84" width="16.52" height="3.39" style="fill:rgb(236,0,0);"/>
                <rect x="156.78" y="187.84" width="22.57" height="3.39" style="fill:rgb(236,0,0);"/>
                <path d="M177.66,172.56L158.4,172.56L156,176.14C155.42,177.05 155.09,178.13 155.09,179.38L155.09,181.67L177.66,181.67L177.66,172.56Z" style="fill:rgb(236,0,0);fill-rule:nonzero;"/>
                <rect x="156.78" y="184.39" width="22.57" height="2.95" style="fill:rgb(236,0,0);"/>
                <rect x="215.17" y="172.56" width="16.52" height="9.11" style="fill:rgb(236,0,0);"/>
                <rect x="216.87" y="184.39" width="16.52" height="2.95" style="fill:rgb(236,0,0);"/>
                <rect x="218.53" y="167.78" width="16.52" height="4.29" style="fill:rgb(236,0,0);"/>
                <path d="M178.35,172.07L159.42,172.07L159.09,172.56L178.35,172.56L178.35,172.07Z" style="fill:rgb(236,0,0);fill-rule:nonzero;"/>
                <rect x="188.89" y="172.07" width="16.52" height="0.5" style="fill:rgb(236,0,0);"/>
                <rect x="215.86" y="172.07" width="16.52" height="0.5" style="fill:rgb(236,0,0);"/>
                <rect x="190.2" y="181.67" width="16.52" height="2.72" style="fill:rgb(236,0,0);"/>
                <rect x="157.09" y="181.67" width="22.57" height="2.72" style="fill:rgb(236,0,0);"/>
                <rect x="217.17" y="181.67" width="16.52" height="2.72" style="fill:rgb(236,0,0);"/>
                <rect x="156.78" y="187.34" width="22.57" height="0.5" style="fill:rgb(236,0,0);"/>
                <rect x="189.9" y="187.34" width="16.52" height="0.5" style="fill:rgb(236,0,0);"/>
                <rect x="216.87" y="187.34" width="16.52" height="0.5" style="fill:rgb(236,0,0);"/>
                <rect x="187.24" y="184.39" width="16.52" height="2.95" style="fill:rgb(0,255,228);"/>
                <rect x="187.24" y="187.84" width="16.52" height="3.39" style="fill:rgb(0,255,228);"/>
                <rect x="188.89" y="167.78" width="16.52" height="4.29" style="fill:rgb(0,255,228);"/>
                <rect x="185.54" y="172.56" width="16.52" height="9.11" style="fill:rgb(0,255,228);"/>
                <path d="M178.35,167.78L161.98,167.78C161.81,168.33 161.57,168.86 161.25,169.34L159.42,172.07L178.35,172.07L178.35,167.78Z" style="fill:rgb(0,255,228);fill-rule:nonzero;"/>
                <rect x="214.21" y="187.84" width="16.52" height="3.39" style="fill:rgb(0,255,228);"/>
                <rect x="154.13" y="187.84" width="22.57" height="3.39" style="fill:rgb(0,255,228);"/>
                <path d="M175,172.56L155.74,172.56L153.34,176.14C152.76,177.05 152.43,178.13 152.43,179.38L152.43,181.67L175,181.67L175,172.56Z" style="fill:rgb(0,255,228);fill-rule:nonzero;"/>
                <rect x="154.13" y="184.39" width="22.57" height="2.95" style="fill:rgb(0,255,228);"/>
                <rect x="212.51" y="172.56" width="16.52" height="9.11" style="fill:rgb(0,255,228);"/>
                <rect x="214.21" y="184.39" width="16.52" height="2.95" style="fill:rgb(0,255,228);"/>
                <rect x="215.87" y="167.78" width="16.52" height="4.29" style="fill:rgb(0,255,228);"/>
                <path d="M175.69,172.07L156.76,172.07L156.43,172.56L175.69,172.56L175.69,172.07Z" style="fill:rgb(0,255,228);fill-rule:nonzero;"/>
                <rect x="186.23" y="172.07" width="16.52" height="0.5" style="fill:rgb(0,255,228);"/>
                <rect x="213.2" y="172.07" width="16.52" height="0.5" style="fill:rgb(0,255,228);"/>
                <rect x="187.54" y="181.67" width="16.52" height="2.72" style="fill:rgb(0,255,228);"/>
                <rect x="154.43" y="181.67" width="22.57" height="2.72" style="fill:rgb(0,255,228);"/>
                <rect x="214.51" y="181.67" width="16.52" height="2.72" style="fill:rgb(0,255,228);"/>
                <rect x="154.13" y="187.34" width="22.57" height="0.5" style="fill:rgb(0,255,228);"/>
                <rect x="187.24" y="187.34" width="16.52" height="0.5" style="fill:rgb(0,255,228);"/>
                <rect x="214.21" y="187.34" width="16.52" height="0.5" style="fill:rgb(0,255,228);"/>
                <rect x="188.39" y="184.39" width="16.52" height="2.95"/>
                <rect x="188.39" y="187.84" width="16.52" height="3.39"/>
                <rect x="190.05" y="167.78" width="16.52" height="4.29"/>
                <rect x="186.69" y="172.56" width="16.52" height="9.11"/>
                <path d="M179.51,167.78L163.14,167.78C162.97,168.33 162.73,168.86 162.41,169.34L160.58,172.07L179.51,172.07L179.51,167.78Z" style="fill-rule:nonzero;"/>
                <rect x="215.37" y="187.84" width="16.52" height="3.39"/>
                <rect x="155.28" y="187.84" width="22.57" height="3.39"/>
                <path d="M176.15,172.56L156.89,172.56L154.49,176.14C153.91,177.05 153.58,178.13 153.58,179.38L153.58,181.67L176.15,181.67L176.15,172.56Z" style="fill-rule:nonzero;"/>
                <rect x="155.28" y="184.39" width="22.57" height="2.95"/>
                <rect x="213.67" y="172.56" width="16.52" height="9.11"/>
                <rect x="215.37" y="184.39" width="16.52" height="2.95"/>
                <rect x="217.02" y="167.78" width="16.52" height="4.29"/>
                <path d="M176.84,172.07L157.91,172.07L157.58,172.56L176.84,172.56L176.84,172.07Z" style="fill-rule:nonzero;"/>
                <rect x="187.38" y="172.07" width="16.52" height="0.5"/>
                <rect x="214.35" y="172.07" width="16.52" height="0.5"/>
                <rect x="188.69" y="181.67" width="16.52" height="2.72"/>
                <rect x="155.58" y="181.67" width="22.57" height="2.72"/>
                <rect x="215.67" y="181.67" width="16.52" height="2.72"/>
                <rect x="155.28" y="187.34" width="22.57" height="0.5"/>
                <rect x="188.39" y="187.34" width="16.52" height="0.5"/>
                <rect x="215.37" y="187.34" width="16.52" height="0.5"/>
                <path d="M193.22,203.58L203.1,203.58C204.85,203.58 205.88,202.91 206.25,201.57L190.07,201.57C190.44,202.92 191.48,203.58 193.22,203.58Z" style="fill:rgb(236,0,0);fill-rule:nonzero;"/>
                <path d="M216.87,200.26C216.87,200.45 216.89,200.62 216.9,200.8L233.35,200.8C233.37,200.63 233.38,200.45 233.38,200.26L233.38,199.2L216.86,199.2L216.86,200.26L216.87,200.26Z" style="fill:rgb(236,0,0);fill-rule:nonzero;"/>
                <path d="M220.19,203.58L230.07,203.58C231.82,203.58 232.85,202.91 233.22,201.57L217.04,201.57C217.41,202.92 218.45,203.58 220.19,203.58Z" style="fill:rgb(236,0,0);fill-rule:nonzero;"/>
                <rect x="188.7" y="191.94" width="16.52" height="5.91" style="fill:rgb(236,0,0);"/>
                <path d="M160.09,203.58L176.03,203.58C177.78,203.58 178.81,202.91 179.18,201.57L156.94,201.57C157.31,202.92 158.35,203.58 160.09,203.58Z" style="fill:rgb(236,0,0);fill-rule:nonzero;"/>
                <rect x="215.67" y="191.94" width="16.52" height="5.91" style="fill:rgb(236,0,0);"/>
                <rect x="155.59" y="191.94" width="22.57" height="5.91" style="fill:rgb(236,0,0);"/>
                <path d="M179.36,200.26L179.36,199.2L156.79,199.2L156.79,200.26C156.79,200.45 156.81,200.62 156.82,200.8L179.33,200.8C179.35,200.63 179.36,200.45 179.36,200.26Z" style="fill:rgb(236,0,0);fill-rule:nonzero;"/>
                <path d="M206.41,199.2L189.89,199.2L189.89,200.26C189.89,200.45 189.91,200.62 189.92,200.8L206.37,200.8C206.39,200.63 206.4,200.45 206.4,200.26L206.4,199.2L206.41,199.2Z" style="fill:rgb(236,0,0);fill-rule:nonzero;"/>
                <path d="M156.82,200.8C156.85,201.08 156.89,201.33 156.95,201.57L179.19,201.57C179.26,201.34 179.3,201.08 179.32,200.8L156.81,200.8L156.82,200.8Z" style="fill:rgb(236,0,0);fill-rule:nonzero;"/>
                <path d="M217.03,201.57L233.22,201.57C233.29,201.34 233.33,201.08 233.35,200.8L216.9,200.8C216.92,201.08 216.97,201.33 217.03,201.57Z" style="fill:rgb(236,0,0);fill-rule:nonzero;"/>
                <path d="M189.93,200.8C189.95,201.08 190,201.33 190.06,201.57L206.24,201.57C206.31,201.34 206.35,201.08 206.37,200.8L189.92,200.8L189.93,200.8Z" style="fill:rgb(236,0,0);fill-rule:nonzero;"/>
                <rect x="189.9" y="197.84" width="16.52" height="1.36" style="fill:rgb(236,0,0);"/>
                <rect x="216.87" y="197.84" width="16.52" height="1.36" style="fill:rgb(236,0,0);"/>
                <rect x="156.78" y="197.84" width="22.57" height="1.36" style="fill:rgb(236,0,0);"/>
                <path d="M190.56,203.58L200.44,203.58C202.19,203.58 203.22,202.91 203.59,201.57L187.41,201.57C187.78,202.92 188.82,203.58 190.56,203.58Z" style="fill:rgb(0,255,228);fill-rule:nonzero;"/>
                <path d="M214.21,200.26C214.21,200.45 214.23,200.62 214.24,200.8L230.69,200.8C230.71,200.63 230.72,200.45 230.72,200.26L230.72,199.2L214.2,199.2L214.2,200.26L214.21,200.26Z" style="fill:rgb(0,255,228);fill-rule:nonzero;"/>
                <path d="M217.53,203.58L227.41,203.58C229.16,203.58 230.19,202.91 230.56,201.57L214.38,201.57C214.75,202.92 215.79,203.58 217.53,203.58Z" style="fill:rgb(0,255,228);fill-rule:nonzero;"/>
                <rect x="186.04" y="191.94" width="16.52" height="5.91" style="fill:rgb(0,255,228);"/>
                <path d="M157.44,203.58L173.38,203.58C175.13,203.58 176.16,202.91 176.53,201.57L154.29,201.57C154.66,202.92 155.7,203.58 157.44,203.58Z" style="fill:rgb(0,255,228);fill-rule:nonzero;"/>
                <rect x="213.01" y="191.94" width="16.52" height="5.91" style="fill:rgb(0,255,228);"/>
                <rect x="152.93" y="191.94" width="22.57" height="5.91" style="fill:rgb(0,255,228);"/>
                <path d="M176.7,200.26L176.7,199.2L154.13,199.2L154.13,200.26C154.13,200.45 154.15,200.62 154.16,200.8L176.67,200.8C176.69,200.63 176.7,200.45 176.7,200.26Z" style="fill:rgb(0,255,228);fill-rule:nonzero;"/>
                <path d="M203.76,199.2L187.24,199.2L187.24,200.26C187.24,200.45 187.26,200.62 187.27,200.8L203.72,200.8C203.74,200.63 203.75,200.45 203.75,200.26L203.75,199.2L203.76,199.2Z" style="fill:rgb(0,255,228);fill-rule:nonzero;"/>
                <path d="M154.16,200.8C154.19,201.08 154.23,201.33 154.29,201.57L176.53,201.57C176.6,201.34 176.64,201.08 176.66,200.8L154.15,200.8L154.16,200.8Z" style="fill:rgb(0,255,228);fill-rule:nonzero;"/>
                <path d="M214.37,201.57L230.56,201.57C230.63,201.34 230.67,201.08 230.69,200.8L214.24,200.8C214.26,201.08 214.31,201.33 214.37,201.57Z" style="fill:rgb(0,255,228);fill-rule:nonzero;"/>
                <path d="M187.27,200.8C187.29,201.08 187.34,201.33 187.4,201.57L203.58,201.57C203.65,201.34 203.69,201.08 203.71,200.8L187.26,200.8L187.27,200.8Z" style="fill:rgb(0,255,228);fill-rule:nonzero;"/>
                <rect x="187.24" y="197.84" width="16.52" height="1.36" style="fill:rgb(0,255,228);"/>
                <rect x="214.21" y="197.84" width="16.52" height="1.36" style="fill:rgb(0,255,228);"/>
                <rect x="154.13" y="197.84" width="22.57" height="1.36" style="fill:rgb(0,255,228);"/>
                <path d="M191.71,203.58L201.59,203.58C203.34,203.58 204.37,202.91 204.74,201.57L188.56,201.57C188.93,202.92 189.97,203.58 191.71,203.58Z" style="fill-rule:nonzero;"/>
                <path d="M215.37,200.26C215.37,200.45 215.39,200.62 215.4,200.8L231.85,200.8C231.87,200.63 231.88,200.45 231.88,200.26L231.88,199.2L215.36,199.2L215.36,200.26L215.37,200.26Z" style="fill-rule:nonzero;"/>
                <path d="M218.69,203.58L228.57,203.58C230.32,203.58 231.35,202.91 231.72,201.57L215.54,201.57C215.91,202.92 216.95,203.58 218.69,203.58Z" style="fill-rule:nonzero;"/>
                <rect x="187.19" y="191.94" width="16.52" height="5.91"/>
                <path d="M158.59,203.58L174.53,203.58C176.28,203.58 177.31,202.91 177.68,201.57L155.44,201.57C155.81,202.92 156.85,203.58 158.59,203.58Z" style="fill-rule:nonzero;"/>
                <rect x="214.17" y="191.94" width="16.52" height="5.91"/>
                <rect x="154.08" y="191.94" width="22.57" height="5.91"/>
                <path d="M177.85,200.26L177.85,199.2L155.28,199.2L155.28,200.26C155.28,200.45 155.3,200.62 155.31,200.8L177.82,200.8C177.84,200.63 177.85,200.45 177.85,200.26Z" style="fill-rule:nonzero;"/>
                <path d="M204.91,199.2L188.39,199.2L188.39,200.26C188.39,200.45 188.41,200.62 188.42,200.8L204.87,200.8C204.89,200.63 204.9,200.45 204.9,200.26L204.9,199.2L204.91,199.2Z" style="fill-rule:nonzero;"/>
                <path d="M155.31,200.8C155.34,201.08 155.38,201.33 155.44,201.57L177.68,201.57C177.75,201.34 177.79,201.08 177.81,200.8L155.3,200.8L155.31,200.8Z" style="fill-rule:nonzero;"/>
                <path d="M215.52,201.57L231.71,201.57C231.78,201.34 231.82,201.08 231.84,200.8L215.39,200.8C215.41,201.08 215.46,201.33 215.52,201.57Z" style="fill-rule:nonzero;"/>
                <path d="M188.43,200.8C188.45,201.08 188.5,201.33 188.56,201.57L204.74,201.57C204.81,201.34 204.85,201.08 204.87,200.8L188.42,200.8L188.43,200.8Z" style="fill-rule:nonzero;"/>
                <rect x="188.39" y="197.84" width="16.52" height="1.36"/>
                <rect x="215.37" y="197.84" width="16.52" height="1.36"/>
                <rect x="155.28" y="197.84" width="22.57" height="1.36"/>
            </g>
            <path id="A" d="M149.88,200.26C149.88,202.5 148.8,203.58 146.56,203.58L137.76,203.58C135.52,203.58 134.44,202.5 134.44,200.26L134.44,185.15C134.44,184.4 134.02,183.99 133.28,183.99L123.49,183.99C122.74,183.99 122.41,184.32 122.41,185.07L122.41,200.26C122.41,202.5 121.33,203.58 119.09,203.58L103.16,203.58C100.92,203.58 99.84,202.5 99.84,200.26L99.84,182.91C99.84,181.66 100.17,180.59 100.75,179.67L105.31,172.86C105.97,171.86 106.31,170.7 106.31,169.46L106.31,164.81C106.31,163.07 106.89,161.41 108.05,159.91L116.1,149.04C117.84,146.63 120.25,145.47 123.24,145.47L144.07,145.47C147.97,145.47 149.88,147.38 149.88,151.28L149.88,200.26ZM127.64,156.85C126.64,156.85 125.81,157.35 125.23,158.26L123.15,161.58C122.65,162.33 122.4,163.16 122.4,163.99L122.4,172.87C122.4,173.62 122.73,173.95 123.4,173.95L133.28,173.95C134.03,173.95 134.44,173.62 134.44,172.87L134.44,159.09C134.44,157.6 133.78,156.85 132.53,156.85L127.63,156.85L127.64,156.85Z" style="fill-rule:nonzero;"/>
            <path id="L" d="M80.08,190.14C80.08,191.55 80.74,192.21 82.15,192.21L95.51,192.21C96.75,192.21 97.34,192.87 97.34,194.2L97.34,201C97.34,202.33 96.76,203.16 95.6,203.57L72.69,203.57C64.97,203.57 61.07,199.75 61.07,192.03L61.07,148.79C61.07,146.55 62.15,145.47 64.39,145.47L76.76,145.47C79,145.47 80.08,146.55 80.08,148.79L80.08,190.14Z" style="fill-rule:nonzero;"/>
            <path id="F" d="M56.92,154.87C56.92,156.2 56.34,156.86 55.09,156.86L37.33,156.86C36.5,156.86 36.09,157.28 36.09,158.11L36.09,169.73C36.09,170.23 36.34,170.48 36.92,170.48L53.77,170.48C54.85,170.48 55.43,171.06 55.43,172.31L55.43,176.13C55.43,177.46 54.93,178.21 53.85,178.45L45.97,180.36C44.56,180.69 43.31,181.02 41.99,181.02L36.93,181.02C36.43,181.02 36.18,181.27 36.18,181.77L36.18,200.28C36.18,202.52 35.1,203.6 32.86,203.6L17.01,203.6C14.77,203.6 13.69,202.52 13.69,200.28L13.69,179.61C13.69,178.36 14.02,177.29 14.6,176.37L19.16,169.56C19.82,168.56 20.16,167.4 20.16,166.16L20.16,148.81C20.16,146.57 21.24,145.49 23.48,145.49L55.1,145.49C56.34,145.49 56.93,146.15 56.93,147.48L56.93,154.87L56.92,154.87Z" style="fill-rule:nonzero;"/>
        </g>
        <g id="transcript">
            <g transform="matrix(-1,7.65714e-16,-7.65714e-16,-1,585.03,436.06)">
                <rect x="273.66" y="212.33" width="37.71" height="11.4"/>
            </g>
            <g transform="matrix(-1,7.65714e-16,-7.65714e-16,-1,490.57,436.06)">
                <rect x="237.05" y="212.33" width="16.48" height="11.4"/>
            </g>
            <g transform="matrix(-1,7.65714e-16,-7.65714e-16,-1,433.71,436.06)">
                <rect x="215.02" y="212.33" width="3.66" height="11.4"/>
            </g>
            <g transform="matrix(-1,7.65714e-16,-7.65714e-16,-1,405.3,436.06)">
                <rect x="200.82" y="212.33" width="3.66" height="11.4"/>
            </g>
            <g transform="matrix(-1,7.65714e-16,-7.65714e-16,-1,353.73,436.06)">
                <rect x="167.48" y="212.33" width="18.76" height="11.4"/>
            </g>
            <rect x="174.81" y="216.75" width="117.16" height="2.56"/>
            <g transform="matrix(-1,7.65714e-16,-7.65714e-16,-1,514.59,436.06)">
                <rect x="255.46" y="212.33" width="3.66" height="11.4"/>
            </g>
            <g transform="matrix(-1,7.65714e-16,-7.65714e-16,-1,163.38,436.06)">
                <rect x="65.84" y="212.33" width="31.71" height="11.4"/>
            </g>
            <g transform="matrix(-1,7.65714e-16,-7.65714e-16,-1,276.29,436.06)">
                <rect x="129.91" y="212.33" width="16.48" height="11.4"/>
            </g>
            <g transform="matrix(-1,7.65714e-16,-7.65714e-16,-1,307.42,436.06)">
                <rect x="151.88" y="212.33" width="3.66" height="11.4"/>
            </g>
            <g transform="matrix(-1,7.65714e-16,-7.65714e-16,-1,241.51,436.06)">
                <rect x="118.93" y="212.33" width="3.66" height="11.4"/>
            </g>
            <g transform="matrix(-1,7.65714e-16,-7.65714e-16,-1,57.49,436.06)">
                <rect x="13.66" y="212.33" width="30.16" height="11.4"/>
            </g>
            <rect x="20.99" y="216.75" width="155.28" height="2.56"/>
            <g transform="matrix(-1,7.65714e-16,-7.65714e-16,-1,112.43,436.06)">
                <rect x="53.93" y="212.33" width="4.58" height="11.4"/>
            </g>
        </g>
    </g>
</svg>
